<svg xmlns="http://www.w3.org/2000/svg" xmlns:xlink="http://www.w3.org/1999/xlink" width="73" zoomAndPan="magnify" viewBox="0 0 54.75 37.5" height="50" preserveAspectRatio="xMidYMid meet" version="1.0"><defs><clipPath id="fc71918814"><path d="M 0.238281 0 L 53.816406 0 L 53.816406 36.511719 L 0.238281 36.511719 Z M 0.238281 0 " clip-rule="nonzero"/></clipPath></defs><g clip-path="url(#fc71918814)"><path fill="#000000" d="M 49.882812 14.3125 L 13.722656 14.3125 C 13.722656 14.3125 21.339844 6.753906 21.542969 6.496094 C 22.0625 5.824219 22.378906 4.984375 22.378906 4.070312 C 22.378906 3.0625 21.996094 2.144531 21.371094 1.445312 L 21.050781 1.125 C 20.351562 0.5 19.433594 0.117188 18.421875 0.117188 C 17.382812 0.117188 16.441406 0.523438 15.734375 1.179688 C 15.734375 1.179688 1.144531 15.738281 1.070312 15.832031 C 0.554688 16.5 0.246094 17.335938 0.246094 18.246094 C 0.246094 19.152344 0.554688 19.988281 1.070312 20.65625 C 1.277344 20.925781 15.914062 35.492188 15.914062 35.492188 C 16.59375 36.042969 17.460938 36.375 18.402344 36.375 C 20.585938 36.375 22.359375 34.605469 22.359375 32.421875 C 22.359375 31.464844 22.015625 30.585938 21.449219 29.902344 L 13.722656 22.179688 L 49.882812 22.179688 C 52.054688 22.179688 53.816406 20.417969 53.816406 18.246094 C 53.816406 16.074219 52.054688 14.3125 49.882812 14.3125 " fill-opacity="1" fill-rule="nonzero"/><path fill="#000000" d="M 49.882812 14.3125 L 13.722656 14.3125 C 13.722656 14.3125 21.339844 6.753906 21.542969 6.496094 C 22.0625 5.824219 22.378906 4.984375 22.378906 4.070312 C 22.378906 3.0625 21.996094 2.144531 21.371094 1.445312 L 21.050781 1.125 C 20.351562 0.5 19.433594 0.117188 18.421875 0.117188 C 17.382812 0.117188 16.441406 0.523438 15.734375 1.179688 C 15.734375 1.179688 1.144531 15.738281 1.070312 15.832031 C 0.554688 16.5 0.246094 17.335938 0.246094 18.246094 C 0.246094 19.152344 0.554688 19.988281 1.070312 20.65625 C 1.277344 20.925781 15.914062 35.492188 15.914062 35.492188 C 16.59375 36.042969 17.460938 36.375 18.402344 36.375 C 20.585938 36.375 22.359375 34.605469 22.359375 32.421875 C 22.359375 31.464844 22.015625 30.585938 21.449219 29.902344 L 13.722656 22.179688 L 49.882812 22.179688 C 52.054688 22.179688 53.816406 20.417969 53.816406 18.246094 C 53.816406 16.074219 52.054688 14.3125 49.882812 14.3125 " fill-opacity="1" fill-rule="nonzero"/></g></svg>