<svg xmlns="http://www.w3.org/2000/svg" xmlns:xlink="http://www.w3.org/1999/xlink" width="49" zoomAndPan="magnify" viewBox="0 0 36.75 38.999999" height="52" preserveAspectRatio="xMidYMid meet" version="1.0"><defs><clipPath id="84a2eb231f"><path d="M 0 0.132812 L 36.480469 0.132812 L 36.480469 38.386719 L 0 38.386719 Z M 0 0.132812 " clip-rule="nonzero"/></clipPath><clipPath id="9050d99303"><path d="M 0 0.132812 L 36.480469 0.132812 L 36.480469 38.386719 L 0 38.386719 Z M 0 0.132812 " clip-rule="nonzero"/></clipPath></defs><g clip-path="url(#84a2eb231f)"><path fill="#000000" d="M 29.890625 3.957031 L 28.117188 3.957031 L 28.117188 1.304688 C 28.117188 0.667969 27.597656 0.152344 26.964844 0.152344 C 26.328125 0.152344 25.816406 0.671875 25.816406 1.304688 L 25.816406 3.964844 L 10.003906 3.964844 L 10.003906 1.304688 C 10.003906 0.667969 9.484375 0.152344 8.851562 0.152344 C 8.214844 0.152344 7.703125 0.671875 7.703125 1.304688 L 7.703125 3.964844 L 6.585938 3.964844 C 2.949219 3.964844 0 6.914062 0 10.558594 L 0 31.769531 C 0 35.410156 2.949219 38.363281 6.585938 38.363281 L 29.890625 38.363281 C 33.527344 38.363281 36.472656 35.410156 36.472656 31.769531 L 36.472656 10.558594 C 36.480469 6.914062 33.527344 3.957031 29.890625 3.957031 Z M 25.8125 5.175781 L 25.8125 7.570312 C 25.8125 8.210938 26.328125 8.722656 26.960938 8.722656 C 27.597656 8.722656 28.113281 8.207031 28.113281 7.570312 L 28.113281 5.265625 C 28.847656 5.695312 29.347656 6.496094 29.347656 7.410156 C 29.347656 8.777344 28.238281 9.886719 26.875 9.886719 C 25.511719 9.886719 24.402344 8.777344 24.402344 7.410156 C 24.414062 6.425781 24.984375 5.578125 25.8125 5.175781 Z M 7.695312 5.21875 L 7.695312 7.570312 C 7.695312 8.210938 8.214844 8.722656 8.847656 8.722656 C 9.484375 8.722656 10 8.207031 10 7.570312 L 10 5.21875 C 10.78125 5.632812 11.316406 6.457031 11.316406 7.40625 C 11.316406 8.773438 10.207031 9.882812 8.84375 9.882812 C 7.476562 9.882812 6.371094 8.773438 6.371094 7.40625 C 6.378906 6.457031 6.917969 5.632812 7.695312 5.21875 Z M 34.171875 31.765625 C 34.171875 34.128906 32.253906 36.050781 29.894531 36.050781 L 6.585938 36.050781 C 4.222656 36.050781 2.304688 34.125 2.304688 31.765625 L 2.304688 14.195312 L 34.171875 14.195312 Z M 34.171875 31.765625 " fill-opacity="1" fill-rule="nonzero"/></g><path fill="#000000" d="M 10.035156 20.847656 L 6.847656 20.847656 C 6.589844 20.847656 6.378906 20.636719 6.378906 20.378906 L 6.378906 17.183594 C 6.378906 16.929688 6.589844 16.71875 6.847656 16.71875 L 10.035156 16.71875 C 10.292969 16.71875 10.503906 16.929688 10.503906 17.183594 L 10.503906 20.378906 C 10.496094 20.636719 10.292969 20.847656 10.035156 20.847656 Z M 10.035156 20.847656 " fill-opacity="1" fill-rule="nonzero"/><path fill="#000000" d="M 10.035156 27.398438 L 6.847656 27.398438 C 6.589844 27.398438 6.378906 27.1875 6.378906 26.929688 L 6.378906 23.738281 C 6.378906 23.480469 6.589844 23.269531 6.847656 23.269531 L 10.035156 23.269531 C 10.292969 23.269531 10.503906 23.480469 10.503906 23.738281 L 10.503906 26.929688 C 10.496094 27.191406 10.292969 27.398438 10.035156 27.398438 Z M 10.035156 27.398438 " fill-opacity="1" fill-rule="nonzero"/><path fill="#000000" d="M 10.035156 33.953125 L 6.847656 33.953125 C 6.589844 33.953125 6.378906 33.746094 6.378906 33.488281 L 6.378906 30.292969 C 6.378906 30.035156 6.589844 29.828125 6.847656 29.828125 L 10.035156 29.828125 C 10.292969 29.828125 10.503906 30.035156 10.503906 30.292969 L 10.503906 33.492188 C 10.496094 33.746094 10.292969 33.953125 10.035156 33.953125 Z M 10.035156 33.953125 " fill-opacity="1" fill-rule="nonzero"/><path fill="#000000" d="M 16.578125 20.847656 L 13.386719 20.847656 C 13.132812 20.847656 12.921875 20.636719 12.921875 20.378906 L 12.921875 17.183594 C 12.921875 16.929688 13.132812 16.71875 13.386719 16.71875 L 16.578125 16.71875 C 16.835938 16.71875 17.042969 16.929688 17.042969 17.183594 L 17.042969 20.378906 C 17.042969 20.636719 16.835938 20.847656 16.578125 20.847656 Z M 16.578125 20.847656 " fill-opacity="1" fill-rule="nonzero"/><path fill="#000000" d="M 16.578125 27.398438 L 13.386719 27.398438 C 13.132812 27.398438 12.921875 27.1875 12.921875 26.929688 L 12.921875 23.738281 C 12.921875 23.480469 13.132812 23.269531 13.386719 23.269531 L 16.578125 23.269531 C 16.835938 23.269531 17.042969 23.480469 17.042969 23.738281 L 17.042969 26.929688 C 17.042969 27.191406 16.835938 27.398438 16.578125 27.398438 Z M 16.578125 27.398438 " fill-opacity="1" fill-rule="nonzero"/><path fill="#000000" d="M 16.578125 33.953125 L 13.386719 33.953125 C 13.132812 33.953125 12.921875 33.746094 12.921875 33.488281 L 12.921875 30.292969 C 12.921875 30.035156 13.132812 29.828125 13.386719 29.828125 L 16.578125 29.828125 C 16.835938 29.828125 17.042969 30.035156 17.042969 30.292969 L 17.042969 33.492188 C 17.042969 33.746094 16.835938 33.953125 16.578125 33.953125 Z M 16.578125 33.953125 " fill-opacity="1" fill-rule="nonzero"/><path fill="#000000" d="M 23.125 20.847656 L 19.933594 20.847656 C 19.675781 20.847656 19.46875 20.636719 19.46875 20.378906 L 19.46875 17.183594 C 19.46875 16.929688 19.675781 16.71875 19.933594 16.71875 L 23.125 16.71875 C 23.382812 16.71875 23.589844 16.929688 23.589844 17.183594 L 23.589844 20.378906 C 23.585938 20.636719 23.382812 20.847656 23.125 20.847656 Z M 23.125 20.847656 " fill-opacity="1" fill-rule="nonzero"/><path fill="#000000" d="M 23.125 27.398438 L 19.933594 27.398438 C 19.675781 27.398438 19.46875 27.1875 19.46875 26.929688 L 19.46875 23.738281 C 19.46875 23.480469 19.675781 23.269531 19.933594 23.269531 L 23.125 23.269531 C 23.382812 23.269531 23.589844 23.480469 23.589844 23.738281 L 23.589844 26.929688 C 23.585938 27.191406 23.382812 27.398438 23.125 27.398438 Z M 23.125 27.398438 " fill-opacity="1" fill-rule="nonzero"/><path fill="#000000" d="M 23.125 33.953125 L 19.933594 33.953125 C 19.675781 33.953125 19.46875 33.746094 19.46875 33.488281 L 19.46875 30.292969 C 19.46875 30.035156 19.675781 29.828125 19.933594 29.828125 L 23.125 29.828125 C 23.382812 29.828125 23.589844 30.035156 23.589844 30.292969 L 23.589844 33.492188 C 23.585938 33.746094 23.382812 33.953125 23.125 33.953125 Z M 23.125 33.953125 " fill-opacity="1" fill-rule="nonzero"/><path fill="#000000" d="M 29.671875 20.847656 L 26.480469 20.847656 C 26.222656 20.847656 26.015625 20.636719 26.015625 20.378906 L 26.015625 17.183594 C 26.015625 16.929688 26.222656 16.71875 26.480469 16.71875 L 29.671875 16.71875 C 29.925781 16.71875 30.136719 16.929688 30.136719 17.183594 L 30.136719 20.378906 C 30.132812 20.636719 29.921875 20.847656 29.671875 20.847656 Z M 29.671875 20.847656 " fill-opacity="1" fill-rule="nonzero"/><path fill="#000000" d="M 29.671875 27.398438 L 26.480469 27.398438 C 26.222656 27.398438 26.015625 27.1875 26.015625 26.929688 L 26.015625 23.738281 C 26.015625 23.480469 26.222656 23.269531 26.480469 23.269531 L 29.671875 23.269531 C 29.925781 23.269531 30.136719 23.480469 30.136719 23.738281 L 30.136719 26.929688 C 30.132812 27.191406 29.921875 27.398438 29.671875 27.398438 Z M 29.671875 27.398438 " fill-opacity="1" fill-rule="nonzero"/><g clip-path="url(#9050d99303)"><path fill="#000000" d="M 29.890625 3.957031 L 28.117188 3.957031 L 28.117188 1.304688 C 28.117188 0.667969 27.597656 0.152344 26.964844 0.152344 C 26.328125 0.152344 25.816406 0.671875 25.816406 1.304688 L 25.816406 3.964844 L 10.003906 3.964844 L 10.003906 1.304688 C 10.003906 0.667969 9.484375 0.152344 8.851562 0.152344 C 8.214844 0.152344 7.703125 0.671875 7.703125 1.304688 L 7.703125 3.964844 L 6.585938 3.964844 C 2.949219 3.964844 0 6.914062 0 10.558594 L 0 31.769531 C 0 35.410156 2.949219 38.363281 6.585938 38.363281 L 29.890625 38.363281 C 33.527344 38.363281 36.472656 35.410156 36.472656 31.769531 L 36.472656 10.558594 C 36.480469 6.914062 33.527344 3.957031 29.890625 3.957031 Z M 25.8125 5.175781 L 25.8125 7.570312 C 25.8125 8.210938 26.328125 8.722656 26.960938 8.722656 C 27.597656 8.722656 28.113281 8.207031 28.113281 7.570312 L 28.113281 5.265625 C 28.847656 5.695312 29.347656 6.496094 29.347656 7.410156 C 29.347656 8.777344 28.238281 9.886719 26.875 9.886719 C 25.511719 9.886719 24.402344 8.777344 24.402344 7.410156 C 24.414062 6.425781 24.984375 5.578125 25.8125 5.175781 Z M 7.695312 5.21875 L 7.695312 7.570312 C 7.695312 8.210938 8.214844 8.722656 8.847656 8.722656 C 9.484375 8.722656 10 8.207031 10 7.570312 L 10 5.21875 C 10.78125 5.632812 11.316406 6.457031 11.316406 7.40625 C 11.316406 8.773438 10.207031 9.882812 8.84375 9.882812 C 7.476562 9.882812 6.371094 8.773438 6.371094 7.40625 C 6.378906 6.457031 6.917969 5.632812 7.695312 5.21875 Z M 34.171875 31.765625 C 34.171875 34.128906 32.253906 36.050781 29.894531 36.050781 L 6.585938 36.050781 C 4.222656 36.050781 2.304688 34.125 2.304688 31.765625 L 2.304688 14.195312 L 34.171875 14.195312 Z M 34.171875 31.765625 " fill-opacity="1" fill-rule="nonzero"/></g><path fill="#000000" d="M 10.035156 20.847656 L 6.847656 20.847656 C 6.589844 20.847656 6.378906 20.636719 6.378906 20.378906 L 6.378906 17.183594 C 6.378906 16.929688 6.589844 16.71875 6.847656 16.71875 L 10.035156 16.71875 C 10.292969 16.71875 10.503906 16.929688 10.503906 17.183594 L 10.503906 20.378906 C 10.496094 20.636719 10.292969 20.847656 10.035156 20.847656 Z M 10.035156 20.847656 " fill-opacity="1" fill-rule="nonzero"/><path fill="#000000" d="M 10.035156 27.398438 L 6.847656 27.398438 C 6.589844 27.398438 6.378906 27.1875 6.378906 26.929688 L 6.378906 23.738281 C 6.378906 23.480469 6.589844 23.269531 6.847656 23.269531 L 10.035156 23.269531 C 10.292969 23.269531 10.503906 23.480469 10.503906 23.738281 L 10.503906 26.929688 C 10.496094 27.191406 10.292969 27.398438 10.035156 27.398438 Z M 10.035156 27.398438 " fill-opacity="1" fill-rule="nonzero"/><path fill="#000000" d="M 10.035156 33.953125 L 6.847656 33.953125 C 6.589844 33.953125 6.378906 33.746094 6.378906 33.488281 L 6.378906 30.292969 C 6.378906 30.035156 6.589844 29.828125 6.847656 29.828125 L 10.035156 29.828125 C 10.292969 29.828125 10.503906 30.035156 10.503906 30.292969 L 10.503906 33.492188 C 10.496094 33.746094 10.292969 33.953125 10.035156 33.953125 Z M 10.035156 33.953125 " fill-opacity="1" fill-rule="nonzero"/><path fill="#000000" d="M 16.578125 20.847656 L 13.386719 20.847656 C 13.132812 20.847656 12.921875 20.636719 12.921875 20.378906 L 12.921875 17.183594 C 12.921875 16.929688 13.132812 16.71875 13.386719 16.71875 L 16.578125 16.71875 C 16.835938 16.71875 17.042969 16.929688 17.042969 17.183594 L 17.042969 20.378906 C 17.042969 20.636719 16.835938 20.847656 16.578125 20.847656 Z M 16.578125 20.847656 " fill-opacity="1" fill-rule="nonzero"/><path fill="#000000" d="M 16.578125 27.398438 L 13.386719 27.398438 C 13.132812 27.398438 12.921875 27.1875 12.921875 26.929688 L 12.921875 23.738281 C 12.921875 23.480469 13.132812 23.269531 13.386719 23.269531 L 16.578125 23.269531 C 16.835938 23.269531 17.042969 23.480469 17.042969 23.738281 L 17.042969 26.929688 C 17.042969 27.191406 16.835938 27.398438 16.578125 27.398438 Z M 16.578125 27.398438 " fill-opacity="1" fill-rule="nonzero"/><path fill="#000000" d="M 16.578125 33.953125 L 13.386719 33.953125 C 13.132812 33.953125 12.921875 33.746094 12.921875 33.488281 L 12.921875 30.292969 C 12.921875 30.035156 13.132812 29.828125 13.386719 29.828125 L 16.578125 29.828125 C 16.835938 29.828125 17.042969 30.035156 17.042969 30.292969 L 17.042969 33.492188 C 17.042969 33.746094 16.835938 33.953125 16.578125 33.953125 Z M 16.578125 33.953125 " fill-opacity="1" fill-rule="nonzero"/><path fill="#000000" d="M 23.125 20.847656 L 19.933594 20.847656 C 19.675781 20.847656 19.46875 20.636719 19.46875 20.378906 L 19.46875 17.183594 C 19.46875 16.929688 19.675781 16.71875 19.933594 16.71875 L 23.125 16.71875 C 23.382812 16.71875 23.589844 16.929688 23.589844 17.183594 L 23.589844 20.378906 C 23.585938 20.636719 23.382812 20.847656 23.125 20.847656 Z M 23.125 20.847656 " fill-opacity="1" fill-rule="nonzero"/><path fill="#000000" d="M 23.125 27.398438 L 19.933594 27.398438 C 19.675781 27.398438 19.46875 27.1875 19.46875 26.929688 L 19.46875 23.738281 C 19.46875 23.480469 19.675781 23.269531 19.933594 23.269531 L 23.125 23.269531 C 23.382812 23.269531 23.589844 23.480469 23.589844 23.738281 L 23.589844 26.929688 C 23.585938 27.191406 23.382812 27.398438 23.125 27.398438 Z M 23.125 27.398438 " fill-opacity="1" fill-rule="nonzero"/><path fill="#000000" d="M 23.125 33.953125 L 19.933594 33.953125 C 19.675781 33.953125 19.46875 33.746094 19.46875 33.488281 L 19.46875 30.292969 C 19.46875 30.035156 19.675781 29.828125 19.933594 29.828125 L 23.125 29.828125 C 23.382812 29.828125 23.589844 30.035156 23.589844 30.292969 L 23.589844 33.492188 C 23.585938 33.746094 23.382812 33.953125 23.125 33.953125 Z M 23.125 33.953125 " fill-opacity="1" fill-rule="nonzero"/><path fill="#000000" d="M 29.671875 20.847656 L 26.480469 20.847656 C 26.222656 20.847656 26.015625 20.636719 26.015625 20.378906 L 26.015625 17.183594 C 26.015625 16.929688 26.222656 16.71875 26.480469 16.71875 L 29.671875 16.71875 C 29.925781 16.71875 30.136719 16.929688 30.136719 17.183594 L 30.136719 20.378906 C 30.132812 20.636719 29.921875 20.847656 29.671875 20.847656 Z M 29.671875 20.847656 " fill-opacity="1" fill-rule="nonzero"/><path fill="#000000" d="M 29.671875 27.398438 L 26.480469 27.398438 C 26.222656 27.398438 26.015625 27.1875 26.015625 26.929688 L 26.015625 23.738281 C 26.015625 23.480469 26.222656 23.269531 26.480469 23.269531 L 29.671875 23.269531 C 29.925781 23.269531 30.136719 23.480469 30.136719 23.738281 L 30.136719 26.929688 C 30.132812 27.191406 29.921875 27.398438 29.671875 27.398438 Z M 29.671875 27.398438 " fill-opacity="1" fill-rule="nonzero"/></svg>