<svg width="110" height="47" viewBox="0 0 110 47" fill="none" xmlns="http://www.w3.org/2000/svg">
<path d="M0.0454545 47V0.454544H9.88636V38.8864H29.8409V47H0.0454545ZM28.7727 8.56818V0.454544H67V8.56818H52.75V47H43.0227V8.56818H28.7727ZM73.2955 47V0.454544H91.9318C95.3561 0.454544 98.2121 0.96212 100.5 1.97727C102.788 2.99242 104.508 4.40151 105.659 6.20454C106.811 7.99242 107.386 10.053 107.386 12.3864C107.386 14.2045 107.023 15.803 106.295 17.1818C105.568 18.5455 104.568 19.6667 103.295 20.5455C102.038 21.4091 100.598 22.0227 98.9773 22.3864V22.8409C100.75 22.9167 102.409 23.4167 103.955 24.3409C105.515 25.2652 106.78 26.5606 107.75 28.2273C108.72 29.8788 109.205 31.8485 109.205 34.1364C109.205 36.6061 108.591 38.8106 107.364 40.75C106.152 42.6742 104.356 44.197 101.977 45.3182C99.5985 46.4394 96.6667 47 93.1818 47H73.2955ZM83.1364 38.9545H91.1591C93.9015 38.9545 95.9015 38.4318 97.1591 37.3864C98.4167 36.3258 99.0455 34.9167 99.0455 33.1591C99.0455 31.8712 98.7348 30.7348 98.1136 29.75C97.4924 28.7652 96.6061 27.9924 95.4545 27.4318C94.3182 26.8712 92.9621 26.5909 91.3864 26.5909H83.1364V38.9545ZM83.1364 19.9318H90.4318C91.7803 19.9318 92.9773 19.697 94.0227 19.2273C95.0833 18.7424 95.9167 18.0606 96.5227 17.1818C97.1439 16.303 97.4545 15.25 97.4545 14.0227C97.4545 12.3409 96.8561 10.9848 95.6591 9.95454C94.4773 8.92424 92.7955 8.40909 90.6136 8.40909H83.1364V19.9318Z" fill="black"/>
</svg>
