<svg xmlns="http://www.w3.org/2000/svg" xmlns:xlink="http://www.w3.org/1999/xlink" width="51" zoomAndPan="magnify" viewBox="0 0 38.25 34.5" height="46" preserveAspectRatio="xMidYMid meet" version="1.0"><defs><clipPath id="97b8876a30"><path d="M 1 2 L 36 2 L 36 33.371094 L 1 33.371094 Z M 1 2 " clip-rule="nonzero"/></clipPath></defs><g clip-path="url(#97b8876a30)"><path fill="#000000" d="M 35.664062 10.191406 C 33.738281 0.296875 21.679688 0.132812 18.707031 9.382812 C 15.734375 0.132812 3.675781 0.296875 1.753906 10.191406 C 0.0078125 19.171875 18.707031 33.332031 18.707031 33.332031 C 18.707031 33.332031 37.40625 19.171875 35.664062 10.191406 Z M 35.664062 10.191406 " fill-opacity="1" fill-rule="nonzero"/><path fill="#000000" d="M 35.664062 10.191406 C 33.738281 0.296875 21.679688 0.132812 18.707031 9.382812 C 15.734375 0.132812 3.675781 0.296875 1.753906 10.191406 C 0.0078125 19.171875 18.707031 33.332031 18.707031 33.332031 C 18.707031 33.332031 37.40625 19.171875 35.664062 10.191406 Z M 35.664062 10.191406 " fill-opacity="1" fill-rule="nonzero"/></g></svg>