<svg xmlns="http://www.w3.org/2000/svg" xmlns:xlink="http://www.w3.org/1999/xlink" width="432" zoomAndPan="magnify" viewBox="0 0 324 323.999988" height="432" preserveAspectRatio="xMidYMid meet" version="1.0"><path fill="#000000" d="M 318.75 323.976562 L 5.277344 323.976562 C 2.4375 323.976562 0.136719 321.675781 0.136719 318.835938 L 0.136719 289.554688 C 0.136719 240.835938 39.773438 201.199219 88.492188 201.199219 L 235.53125 201.199219 C 284.253906 201.199219 323.890625 240.835938 323.890625 289.554688 L 323.890625 318.835938 C 323.890625 321.675781 321.589844 323.976562 318.75 323.976562 Z M 162.011719 187.382812 C 110.351562 187.382812 68.324219 145.351562 68.324219 93.691406 C 68.324219 42.03125 110.351562 0 162.011719 0 C 213.675781 0 255.703125 42.03125 255.703125 93.691406 C 255.703125 145.351562 213.675781 187.382812 162.011719 187.382812 Z M 162.011719 187.382812 " fill-opacity="1" fill-rule="nonzero"/><path fill="#000000" d="M 318.75 323.976562 L 5.277344 323.976562 C 2.4375 323.976562 0.136719 321.675781 0.136719 318.835938 L 0.136719 289.554688 C 0.136719 240.835938 39.773438 201.199219 88.492188 201.199219 L 235.53125 201.199219 C 284.253906 201.199219 323.890625 240.835938 323.890625 289.554688 L 323.890625 318.835938 C 323.890625 321.675781 321.589844 323.976562 318.75 323.976562 Z M 162.011719 187.382812 C 110.351562 187.382812 68.324219 145.351562 68.324219 93.691406 C 68.324219 42.03125 110.351562 0 162.011719 0 C 213.675781 0 255.703125 42.03125 255.703125 93.691406 C 255.703125 145.351562 213.675781 187.382812 162.011719 187.382812 Z M 162.011719 187.382812 " fill-opacity="1" fill-rule="nonzero"/></svg>