<svg xmlns="http://www.w3.org/2000/svg" xmlns:xlink="http://www.w3.org/1999/xlink" width="46" zoomAndPan="magnify" viewBox="0 0 34.5 34.5" height="46" preserveAspectRatio="xMidYMid meet" version="1.0"><defs><clipPath id="d7896df269"><path d="M 0 0 L 33.453125 0 L 33.453125 33.453125 L 0 33.453125 Z M 0 0 " clip-rule="nonzero"/></clipPath></defs><g clip-path="url(#d7896df269)"><path fill="#000000" d="M 32.46875 16.023438 L 17.421875 0.980469 C 16.808594 0.375 15.972656 0 15.054688 0 L 3.34375 0 C 1.496094 0 0 1.496094 0 3.34375 L 0 15.054688 C 0 15.984375 0.375 16.820312 0.988281 17.421875 L 16.042969 32.476562 C 16.644531 33.078125 17.480469 33.453125 18.398438 33.453125 C 19.320312 33.453125 20.164062 33.078125 20.765625 32.476562 L 32.476562 20.765625 C 33.078125 20.15625 33.453125 19.320312 33.453125 18.398438 C 33.453125 17.472656 33.078125 16.636719 32.46875 16.023438 Z M 5.855469 8.363281 C 4.464844 8.363281 3.34375 7.242188 3.34375 5.855469 C 3.34375 4.464844 4.464844 3.34375 5.855469 3.34375 C 7.242188 3.34375 8.363281 4.464844 8.363281 5.855469 C 8.363281 7.242188 7.242188 8.363281 5.855469 8.363281 Z M 5.855469 8.363281 " fill-opacity="1" fill-rule="nonzero"/><path fill="#000000" d="M 32.46875 16.023438 L 17.421875 0.980469 C 16.808594 0.375 15.972656 0 15.054688 0 L 3.34375 0 C 1.496094 0 0 1.496094 0 3.34375 L 0 15.054688 C 0 15.984375 0.375 16.820312 0.988281 17.421875 L 16.042969 32.476562 C 16.644531 33.078125 17.480469 33.453125 18.398438 33.453125 C 19.320312 33.453125 20.164062 33.078125 20.765625 32.476562 L 32.476562 20.765625 C 33.078125 20.15625 33.453125 19.320312 33.453125 18.398438 C 33.453125 17.472656 33.078125 16.636719 32.46875 16.023438 Z M 5.855469 8.363281 C 4.464844 8.363281 3.34375 7.242188 3.34375 5.855469 C 3.34375 4.464844 4.464844 3.34375 5.855469 3.34375 C 7.242188 3.34375 8.363281 4.464844 8.363281 5.855469 C 8.363281 7.242188 7.242188 8.363281 5.855469 8.363281 Z M 5.855469 8.363281 " fill-opacity="1" fill-rule="nonzero"/></g></svg>