<svg xmlns="http://www.w3.org/2000/svg" xmlns:xlink="http://www.w3.org/1999/xlink" width="67" zoomAndPan="magnify" viewBox="0 0 50.25 34.5" height="46" preserveAspectRatio="xMidYMid meet" version="1.0"><defs><clipPath id="7020e63c86"><path d="M 0 0.0078125 L 49.074219 0.0078125 L 49.074219 33.445312 L 0 33.445312 Z M 0 0.0078125 " clip-rule="nonzero"/></clipPath></defs><g clip-path="url(#7020e63c86)"><path fill="#000000" d="M 24.539062 0.0078125 C 13.382812 0.0078125 3.859375 6.941406 0 16.726562 C 3.859375 26.511719 13.382812 33.445312 24.539062 33.445312 C 35.691406 33.445312 45.214844 26.511719 49.074219 16.726562 C 45.214844 6.941406 35.703125 0.0078125 24.539062 0.0078125 Z M 24.539062 27.875 C 18.382812 27.875 13.382812 22.878906 13.382812 16.726562 C 13.382812 10.574219 18.382812 5.582031 24.539062 5.582031 C 30.695312 5.582031 35.691406 10.574219 35.691406 16.726562 C 35.691406 22.878906 30.695312 27.875 24.539062 27.875 Z M 24.539062 10.039062 C 20.847656 10.039062 17.84375 13.039062 17.84375 16.726562 C 17.84375 20.417969 20.847656 23.414062 24.539062 23.414062 C 28.230469 23.414062 31.230469 20.417969 31.230469 16.726562 C 31.230469 13.039062 28.230469 10.039062 24.539062 10.039062 Z M 24.539062 10.039062 " fill-opacity="1" fill-rule="nonzero"/><path fill="#000000" d="M 24.539062 0.0078125 C 13.382812 0.0078125 3.859375 6.941406 0 16.726562 C 3.859375 26.511719 13.382812 33.445312 24.539062 33.445312 C 35.691406 33.445312 45.214844 26.511719 49.074219 16.726562 C 45.214844 6.941406 35.703125 0.0078125 24.539062 0.0078125 Z M 24.539062 27.875 C 18.382812 27.875 13.382812 22.878906 13.382812 16.726562 C 13.382812 10.574219 18.382812 5.582031 24.539062 5.582031 C 30.695312 5.582031 35.691406 10.574219 35.691406 16.726562 C 35.691406 22.878906 30.695312 27.875 24.539062 27.875 Z M 24.539062 10.039062 C 20.847656 10.039062 17.84375 13.039062 17.84375 16.726562 C 17.84375 20.417969 20.847656 23.414062 24.539062 23.414062 C 28.230469 23.414062 31.230469 20.417969 31.230469 16.726562 C 31.230469 13.039062 28.230469 10.039062 24.539062 10.039062 Z M 24.539062 10.039062 " fill-opacity="1" fill-rule="nonzero"/></g></svg>